<svg id="Icon_material-people" data-name="Icon material-people" xmlns="http://www.w3.org/2000/svg" width="45.833" height="29.167" viewBox="0 0 45.833 29.167">
  <path id="Icon_material-people-2" data-name="Icon material-people" d="M16.667,22.917a6.25,6.25,0,1,1,6.25-6.25,6.224,6.224,0,0,1-6.25,6.25Zm16.667,0a6.25,6.25,0,1,1,6.25-6.25,6.224,6.224,0,0,1-6.25,6.25Zm0,4.167a26.548,26.548,0,0,1,6.134.861c4.056,1,8.449,3.168,8.449,6.43v5.208H18.75V34.375c0-4.854,9.729-7.292,14.583-7.292Zm-16.667,0c.6,0,1.292.042,2.021.1-2.417,1.75-4.1,4.1-4.1,7.187v5.208H2.083V34.375c0-4.854,9.729-7.292,14.583-7.292Z" transform="translate(-2.083 -10.417)" fill="#fff"/>
</svg>
